<?xml version="1.0" encoding="UTF-8"?>
<svg version="1.1" xmlns="http://www.w3.org/2000/svg" width="512" height="512">
<path d="M0 0 C3.5438405 2.45301057 6.79150471 5.12506115 10 8 C10.67804688 8.60714844 11.35609375 9.21429688 12.0546875 9.83984375 C23.01675601 20.25160762 31.01360153 33.28855493 39 46 C39.53061035 46.83660156 40.0612207 47.67320313 40.60791016 48.53515625 C72.38427966 98.66020811 72.38427966 98.66020811 66.875 126.5 C61.35706236 148.29074447 39.31780935 163.98566234 21.6875 176.34375 C12.37612494 182.95482629 5.98575132 189.78047064 3.4375 201.16796875 C-0.60538354 227.33842023 15.26296645 252.67860563 30 273 C30.50176758 273.69706055 31.00353516 274.39412109 31.52050781 275.11230469 C37.48252452 283.35177343 43.76100688 291.26465564 50.40234375 298.96484375 C52.90833483 301.89289649 55.33508681 304.87168156 57.75 307.875 C60.77176469 311.5903726 63.90170384 315.02295258 67.34375 318.34765625 C69.03766419 320.03757536 70.5774832 321.80059906 72.125 323.625 C80.55385078 333.35786581 89.84794022 342.09133245 100 350 C100.99386719 350.81082031 101.98773438 351.62164062 103.01171875 352.45703125 C118.89532468 365.28191978 136.97153711 375.70630956 158 374 C169.6446842 371.35691344 177.2393673 364.04096915 185.3125 355.6875 C191.58784235 349.30439718 197.92265685 343.48718061 205 338 C205.8146875 337.30648438 206.629375 336.61296875 207.46875 335.8984375 C217.89832507 327.08610666 229.59884083 321.29980819 243.48046875 321.76171875 C265.96057298 323.88774411 284.94322478 337.1791114 301.48583984 351.69189453 C303.7743131 353.6689406 306.13904571 355.54805322 308.5 357.4375 C313.30312565 361.34310728 317.85428196 365.47178624 322.37060547 369.70117188 C325.22362875 372.37252283 328.10758739 374.95075709 331.125 377.4375 C342.46890103 387.31534602 353.46337769 401.28966731 355.31640625 416.6171875 C355.75265543 426.55241069 352.58689637 435.00627418 346.25 442.61328125 C339.63705232 449.62805735 332.2996188 455.96568012 324.9921875 462.2421875 C323.51075646 463.54933253 322.06245875 464.89422251 320.6328125 466.2578125 C313.01500787 473.46873143 304.79203985 479.31237776 296 485 C295.00226563 485.6496875 294.00453125 486.299375 292.9765625 486.96875 C279.24410048 495.43133164 263.65261354 501.25121904 248 505 C247.33790527 505.16371094 246.67581055 505.32742188 245.99365234 505.49609375 C223.5783284 510.75877471 196.35910763 510.20865575 174 505 C173.20851563 504.82839355 172.41703125 504.65678711 171.6015625 504.47998047 C133.41382289 496.15987131 99.05796137 477.28236303 68 454 C66.98550781 453.24203125 65.97101563 452.4840625 64.92578125 451.703125 C53.3286744 442.9563489 42.42955788 433.43313243 31.78125 423.5625 C29.29992193 421.27633257 26.78269184 419.04126882 24.25 416.8125 C19.62805015 412.66248344 15.21202192 408.32037999 10.8125 403.9375 C10.14702148 403.27661377 9.48154297 402.61572754 8.79589844 401.93481445 C4.9309953 398.05789956 1.25766892 394.07046443 -2.31860352 389.92651367 C-4.92561501 386.93944707 -7.65491745 384.07118715 -10.375 381.1875 C-15.04683901 376.19454716 -19.49800315 371.09431243 -23.7734375 365.75390625 C-25.76677614 363.28846108 -27.80954981 360.87471717 -29.87792969 358.47216797 C-72.62352032 308.71386656 -109.50808384 248.31717848 -121 183 C-121.11859375 182.33564941 -121.2371875 181.67129883 -121.359375 180.98681641 C-127.42336373 145.20747815 -122.08996629 107.42525803 -106 75 C-105.50757812 73.98808594 -105.01515625 72.97617188 -104.5078125 71.93359375 C-94.57973276 52.66638815 -79.53616467 35.32835681 -62.390625 22.25488281 C-58.12597886 18.9756284 -54.20060441 15.46427916 -50.3125 11.75 C-44.97517258 6.69871595 -39.49131266 2.51827089 -33 -1 C-32.36191406 -1.35835938 -31.72382812 -1.71671875 -31.06640625 -2.0859375 C-21.59030317 -6.52849765 -8.83698651 -5.2696268 0 0 Z " fill="#030104" transform="translate(140,4)"/>
</svg>
